<svg width="928" height="600" viewBox="0,0,928,600" style="max-width: 100%; height: auto;" xmlns="http://www.w3.org/2000/svg" xmlns:xlink="http://www.w3.org/1999/xlink"><defs><marker id="arrowhead" viewBox="-0 -5 10 10" refX="20" refY="0" orient="auto" markerWidth="5" markerHeight="5" fill="#007bff"><path d="M0,-5L10,0L0,5Z"/></marker></defs><g stroke="#999" stroke-opacity="0.4"><line stroke-width="1" marker-end="url(#arrowhead)" x1="704.3848384783554" y1="49.39966222714894" x2="609.8900323207102" y2="150.5310817596985"/><line stroke-width="2.8284271247461903" marker-end="url(#arrowhead)" x1="629.557308964148" y1="253.19113897272848" x2="609.8900323207102" y2="150.5310817596985"/><line stroke-width="3.1622776601683795" marker-end="url(#arrowhead)" x1="603.7663906192898" y1="231.00466697189526" x2="609.8900323207102" y2="150.5310817596985"/><line stroke-width="2.449489742783178" marker-end="url(#arrowhead)" x1="603.7663906192898" y1="231.00466697189526" x2="629.557308964148" y2="253.19113897272848"/><line stroke-width="1" marker-end="url(#arrowhead)" x1="651.8071021506628" y1="6.3153327572955575" x2="609.8900323207102" y2="150.5310817596985"/><line stroke-width="1" marker-end="url(#arrowhead)" x1="626.4315285682011" y1="54.99590592648511" x2="609.8900323207102" y2="150.5310817596985"/><line stroke-width="1" marker-end="url(#arrowhead)" x1="533.2219279244512" y1="190.21875503295664" x2="609.8900323207102" y2="150.5310817596985"/><line stroke-width="1" marker-end="url(#arrowhead)" x1="556.0879566238108" y1="-0.5836130275356288" x2="609.8900323207102" y2="150.5310817596985"/><line stroke-width="1.4142135623730951" marker-end="url(#arrowhead)" x1="612.5413190106619" y1="180.4168678627571" x2="609.8900323207102" y2="150.5310817596985"/><line stroke-width="1" marker-end="url(#arrowhead)" x1="589.5019201202168" y1="-18.23697176010279" x2="609.8900323207102" y2="150.5310817596985"/><line stroke-width="1" marker-end="url(#arrowhead)" x1="460.15912471308786" y1="368.6905700551848" x2="458.94673258212015" y2="246.6866535207157"/><line stroke-width="1.7320508075688772" marker-end="url(#arrowhead)" x1="460.15912471308786" y1="368.6905700551848" x2="603.7663906192898" y2="231.00466697189526"/><line stroke-width="1.7320508075688772" marker-end="url(#arrowhead)" x1="460.15912471308786" y1="368.6905700551848" x2="629.557308964148" y2="253.19113897272848"/><line stroke-width="2.23606797749979" marker-end="url(#arrowhead)" x1="460.15912471308786" y1="368.6905700551848" x2="609.8900323207102" y2="150.5310817596985"/><line stroke-width="1" marker-end="url(#arrowhead)" x1="316.16625264577874" y1="262.4846415116031" x2="460.15912471308786" y2="368.6905700551848"/><line stroke-width="1" marker-end="url(#arrowhead)" x1="257.1667539206969" y1="341.9500944387227" x2="460.15912471308786" y2="368.6905700551848"/><line stroke-width="1" marker-end="url(#arrowhead)" x1="301.86543821186234" y1="448.40991332912944" x2="460.15912471308786" y2="368.6905700551848"/><line stroke-width="1" marker-end="url(#arrowhead)" x1="479.3561623551663" y1="222.914652959048" x2="460.15912471308786" y2="368.6905700551848"/><line stroke-width="2" marker-end="url(#arrowhead)" x1="379.1206375943961" y1="312.03058450662917" x2="429.3320984502049" y2="241.8639455101253"/><line stroke-width="2" marker-end="url(#arrowhead)" x1="399.88792251306796" y1="247.62865316969132" x2="429.3320984502049" y2="241.8639455101253"/><line stroke-width="2" marker-end="url(#arrowhead)" x1="399.88792251306796" y1="247.62865316969132" x2="379.1206375943961" y2="312.03058450662917"/><line stroke-width="2" marker-end="url(#arrowhead)" x1="514.975864577612" y1="309.56532249331616" x2="429.3320984502049" y2="241.8639455101253"/><line stroke-width="2" marker-end="url(#arrowhead)" x1="514.975864577612" y1="309.56532249331616" x2="379.1206375943961" y2="312.03058450662917"/><line stroke-width="2" marker-end="url(#arrowhead)" x1="514.975864577612" y1="309.56532249331616" x2="399.88792251306796" y2="247.62865316969132"/><line stroke-width="1.7320508075688772" marker-end="url(#arrowhead)" x1="463.1098611680288" y1="276.3995844967648" x2="429.3320984502049" y2="241.8639455101253"/><line stroke-width="1.7320508075688772" marker-end="url(#arrowhead)" x1="463.1098611680288" y1="276.3995844967648" x2="379.1206375943961" y2="312.03058450662917"/><line stroke-width="1.7320508075688772" marker-end="url(#arrowhead)" x1="463.1098611680288" y1="276.3995844967648" x2="399.88792251306796" y2="247.62865316969132"/><line stroke-width="2" marker-end="url(#arrowhead)" x1="463.1098611680288" y1="276.3995844967648" x2="514.975864577612" y2="309.56532249331616"/><line stroke-width="1.7320508075688772" marker-end="url(#arrowhead)" x1="499.51414175977067" y1="283.85248854556176" x2="429.3320984502049" y2="241.8639455101253"/><line stroke-width="1.7320508075688772" marker-end="url(#arrowhead)" x1="499.51414175977067" y1="283.85248854556176" x2="379.1206375943961" y2="312.03058450662917"/><line stroke-width="1.7320508075688772" marker-end="url(#arrowhead)" x1="499.51414175977067" y1="283.85248854556176" x2="399.88792251306796" y2="247.62865316969132"/><line stroke-width="1.7320508075688772" marker-end="url(#arrowhead)" x1="499.51414175977067" y1="283.85248854556176" x2="514.975864577612" y2="309.56532249331616"/><line stroke-width="2.23606797749979" marker-end="url(#arrowhead)" x1="499.51414175977067" y1="283.85248854556176" x2="463.1098611680288" y2="276.3995844967648"/><line stroke-width="1.7320508075688772" marker-end="url(#arrowhead)" x1="406.3793206840199" y1="365.15506493518603" x2="429.3320984502049" y2="241.8639455101253"/><line stroke-width="1.7320508075688772" marker-end="url(#arrowhead)" x1="406.3793206840199" y1="365.15506493518603" x2="379.1206375943961" y2="312.03058450662917"/><line stroke-width="1.7320508075688772" marker-end="url(#arrowhead)" x1="406.3793206840199" y1="365.15506493518603" x2="399.88792251306796" y2="247.62865316969132"/><line stroke-width="1.7320508075688772" marker-end="url(#arrowhead)" x1="406.3793206840199" y1="365.15506493518603" x2="514.975864577612" y2="309.56532249331616"/><line stroke-width="2" marker-end="url(#arrowhead)" x1="406.3793206840199" y1="365.15506493518603" x2="463.1098611680288" y2="276.3995844967648"/><line stroke-width="2" marker-end="url(#arrowhead)" x1="406.3793206840199" y1="365.15506493518603" x2="499.51414175977067" y2="283.85248854556176"/><line stroke-width="1.7320508075688772" marker-end="url(#arrowhead)" x1="442.1748760038945" y1="297.892674913201" x2="429.3320984502049" y2="241.8639455101253"/><line stroke-width="1.7320508075688772" marker-end="url(#arrowhead)" x1="442.1748760038945" y1="297.892674913201" x2="379.1206375943961" y2="312.03058450662917"/><line stroke-width="1.7320508075688772" marker-end="url(#arrowhead)" x1="442.1748760038945" y1="297.892674913201" x2="399.88792251306796" y2="247.62865316969132"/><line stroke-width="1.7320508075688772" marker-end="url(#arrowhead)" x1="442.1748760038945" y1="297.892674913201" x2="514.975864577612" y2="309.56532249331616"/><line stroke-width="2" marker-end="url(#arrowhead)" x1="442.1748760038945" y1="297.892674913201" x2="463.1098611680288" y2="276.3995844967648"/><line stroke-width="2" marker-end="url(#arrowhead)" x1="442.1748760038945" y1="297.892674913201" x2="499.51414175977067" y2="283.85248854556176"/><line stroke-width="2" marker-end="url(#arrowhead)" x1="442.1748760038945" y1="297.892674913201" x2="406.3793206840199" y2="365.15506493518603"/><line stroke-width="1.4142135623730951" marker-end="url(#arrowhead)" x1="442.1748760038945" y1="297.892674913201" x2="316.16625264577874" y2="262.4846415116031"/><line stroke-width="3" marker-end="url(#arrowhead)" x1="442.1748760038945" y1="297.892674913201" x2="460.15912471308786" y2="368.6905700551848"/><line stroke-width="1.4142135623730951" marker-end="url(#arrowhead)" x1="492.1993874587541" y1="254.75532424876252" x2="442.1748760038945" y2="297.892674913201"/><line stroke-width="2.6457513110645907" marker-end="url(#arrowhead)" x1="492.1993874587541" y1="254.75532424876252" x2="460.15912471308786" y2="368.6905700551848"/><line stroke-width="3.605551275463989" marker-end="url(#arrowhead)" x1="458.056074583146" y1="323.35145763016243" x2="492.1993874587541" y2="254.75532424876252"/><line stroke-width="1" marker-end="url(#arrowhead)" x1="458.056074583146" y1="323.35145763016243" x2="442.1748760038945" y2="297.892674913201"/><line stroke-width="3.4641016151377544" marker-end="url(#arrowhead)" x1="458.056074583146" y1="323.35145763016243" x2="460.15912471308786" y2="368.6905700551848"/><line stroke-width="2" marker-end="url(#arrowhead)" x1="447.5600205782482" y1="218.03122531401905" x2="492.1993874587541" y2="254.75532424876252"/><line stroke-width="5.5677643628300215" marker-end="url(#arrowhead)" x1="447.5600205782482" y1="218.03122531401905" x2="460.15912471308786" y2="368.6905700551848"/><line stroke-width="1" marker-end="url(#arrowhead)" x1="447.5600205782482" y1="218.03122531401905" x2="429.3320984502049" y2="241.8639455101253"/><line stroke-width="1" marker-end="url(#arrowhead)" x1="447.5600205782482" y1="218.03122531401905" x2="458.056074583146" y2="323.35145763016243"/><line stroke-width="4.123105625617661" marker-end="url(#arrowhead)" x1="400.31278502988675" y1="335.77174789166446" x2="460.15912471308786" y2="368.6905700551848"/><line stroke-width="2.23606797749979" marker-end="url(#arrowhead)" x1="400.31278502988675" y1="335.77174789166446" x2="442.1748760038945" y2="297.892674913201"/><line stroke-width="2.23606797749979" marker-end="url(#arrowhead)" x1="400.31278502988675" y1="335.77174789166446" x2="458.056074583146" y2="323.35145763016243"/><line stroke-width="1" marker-end="url(#arrowhead)" x1="400.31278502988675" y1="335.77174789166446" x2="492.1993874587541" y2="254.75532424876252"/><line stroke-width="1" marker-end="url(#arrowhead)" x1="400.31278502988675" y1="335.77174789166446" x2="447.5600205782482" y2="218.03122531401905"/><line stroke-width="2.8284271247461903" marker-end="url(#arrowhead)" x1="303.1149222391329" y1="360.28507403250444" x2="460.15912471308786" y2="368.6905700551848"/><line stroke-width="1" marker-end="url(#arrowhead)" x1="303.1149222391329" y1="360.28507403250444" x2="400.31278502988675" y2="335.77174789166446"/><line stroke-width="1" marker-end="url(#arrowhead)" x1="534.9723092711132" y1="414.280129284055" x2="442.1748760038945" y2="297.892674913201"/><line stroke-width="1" marker-end="url(#arrowhead)" x1="534.9723092711132" y1="414.280129284055" x2="400.31278502988675" y2="335.77174789166446"/><line stroke-width="1.4142135623730951" marker-end="url(#arrowhead)" x1="534.9723092711132" y1="414.280129284055" x2="460.15912471308786" y2="368.6905700551848"/><line stroke-width="1" marker-end="url(#arrowhead)" x1="300.61536259588826" y1="161.1884156974443" x2="442.1748760038945" y2="297.892674913201"/><line stroke-width="1.4142135623730951" marker-end="url(#arrowhead)" x1="366.62398429929357" y1="229.776904786855" x2="300.61536259588826" y2="161.1884156974443"/><line stroke-width="1.7320508075688772" marker-end="url(#arrowhead)" x1="366.62398429929357" y1="229.776904786855" x2="460.15912471308786" y2="368.6905700551848"/><line stroke-width="1.4142135623730951" marker-end="url(#arrowhead)" x1="366.62398429929357" y1="229.776904786855" x2="442.1748760038945" y2="297.892674913201"/><line stroke-width="1" marker-end="url(#arrowhead)" x1="366.62398429929357" y1="229.776904786855" x2="400.31278502988675" y2="335.77174789166446"/><line stroke-width="1" marker-end="url(#arrowhead)" x1="406.49708103505554" y1="528.6118284635527" x2="460.15912471308786" y2="368.6905700551848"/><line stroke-width="1.4142135623730951" marker-end="url(#arrowhead)" x1="336.058862339755" y1="411.9269599277584" x2="460.15912471308786" y2="368.6905700551848"/><line stroke-width="1" marker-end="url(#arrowhead)" x1="336.058862339755" y1="411.9269599277584" x2="400.31278502988675" y2="335.77174789166446"/><line stroke-width="1.7320508075688772" marker-end="url(#arrowhead)" x1="571.7592895885086" y1="467.53536128823583" x2="460.15912471308786" y2="368.6905700551848"/><line stroke-width="1.4142135623730951" marker-end="url(#arrowhead)" x1="571.7592895885086" y1="467.53536128823583" x2="534.9723092711132" y2="414.280129284055"/><line stroke-width="1.7320508075688772" marker-end="url(#arrowhead)" x1="511.3515491065216" y1="491.36610055663954" x2="460.15912471308786" y2="368.6905700551848"/><line stroke-width="1.7320508075688772" marker-end="url(#arrowhead)" x1="511.3515491065216" y1="491.36610055663954" x2="571.7592895885086" y2="467.53536128823583"/><line stroke-width="1.4142135623730951" marker-end="url(#arrowhead)" x1="511.3515491065216" y1="491.36610055663954" x2="534.9723092711132" y2="414.280129284055"/><line stroke-width="1.4142135623730951" marker-end="url(#arrowhead)" x1="586.3343193408984" y1="437.0549097582589" x2="571.7592895885086" y2="467.53536128823583"/><line stroke-width="1.4142135623730951" marker-end="url(#arrowhead)" x1="586.3343193408984" y1="437.0549097582589" x2="511.3515491065216" y2="491.36610055663954"/><line stroke-width="1.4142135623730951" marker-end="url(#arrowhead)" x1="586.3343193408984" y1="437.0549097582589" x2="460.15912471308786" y2="368.6905700551848"/><line stroke-width="1" marker-end="url(#arrowhead)" x1="586.3343193408984" y1="437.0549097582589" x2="534.9723092711132" y2="414.280129284055"/><line stroke-width="1.4142135623730951" marker-end="url(#arrowhead)" x1="540.9043410651375" y1="484.240883334199" x2="571.7592895885086" y2="467.53536128823583"/><line stroke-width="1.4142135623730951" marker-end="url(#arrowhead)" x1="540.9043410651375" y1="484.240883334199" x2="511.3515491065216" y2="491.36610055663954"/><line stroke-width="1.4142135623730951" marker-end="url(#arrowhead)" x1="540.9043410651375" y1="484.240883334199" x2="586.3343193408984" y2="437.0549097582589"/><line stroke-width="1.4142135623730951" marker-end="url(#arrowhead)" x1="540.9043410651375" y1="484.240883334199" x2="460.15912471308786" y2="368.6905700551848"/><line stroke-width="1" marker-end="url(#arrowhead)" x1="540.9043410651375" y1="484.240883334199" x2="534.9723092711132" y2="414.280129284055"/><line stroke-width="1.4142135623730951" marker-end="url(#arrowhead)" x1="455.13110852009555" y1="422.21072835298935" x2="571.7592895885086" y2="467.53536128823583"/><line stroke-width="1.4142135623730951" marker-end="url(#arrowhead)" x1="455.13110852009555" y1="422.21072835298935" x2="511.3515491065216" y2="491.36610055663954"/><line stroke-width="1.4142135623730951" marker-end="url(#arrowhead)" x1="455.13110852009555" y1="422.21072835298935" x2="586.3343193408984" y2="437.0549097582589"/><line stroke-width="1.4142135623730951" marker-end="url(#arrowhead)" x1="455.13110852009555" y1="422.21072835298935" x2="540.9043410651375" y2="484.240883334199"/><line stroke-width="1.4142135623730951" marker-end="url(#arrowhead)" x1="455.13110852009555" y1="422.21072835298935" x2="460.15912471308786" y2="368.6905700551848"/><line stroke-width="1" marker-end="url(#arrowhead)" x1="455.13110852009555" y1="422.21072835298935" x2="534.9723092711132" y2="414.280129284055"/><line stroke-width="1" marker-end="url(#arrowhead)" x1="481.16686224531577" y1="167.04536216148887" x2="458.056074583146" y2="323.35145763016243"/><line stroke-width="1" marker-end="url(#arrowhead)" x1="243.42482398620183" y1="374.5872799563769" x2="458.056074583146" y2="323.35145763016243"/><line stroke-width="1.4142135623730951" marker-end="url(#arrowhead)" x1="428.06938260301706" y1="324.37582678044964" x2="492.1993874587541" y2="254.75532424876252"/><line stroke-width="1.7320508075688772" marker-end="url(#arrowhead)" x1="428.06938260301706" y1="324.37582678044964" x2="458.056074583146" y2="323.35145763016243"/><line stroke-width="1.4142135623730951" marker-end="url(#arrowhead)" x1="585.7829233709334" y1="377.1170971853526" x2="428.06938260301706" y2="324.37582678044964"/><line stroke-width="1.4142135623730951" marker-end="url(#arrowhead)" x1="585.7829233709334" y1="377.1170971853526" x2="458.056074583146" y2="323.35145763016243"/><line stroke-width="1" marker-end="url(#arrowhead)" x1="585.7829233709334" y1="377.1170971853526" x2="492.1993874587541" y2="254.75532424876252"/><line stroke-width="1.7320508075688772" marker-end="url(#arrowhead)" x1="351.67500960892187" y1="335.67363393153715" x2="460.15912471308786" y2="368.6905700551848"/><line stroke-width="1" marker-end="url(#arrowhead)" x1="351.67500960892187" y1="335.67363393153715" x2="447.5600205782482" y2="218.03122531401905"/><line stroke-width="1" marker-end="url(#arrowhead)" x1="351.67500960892187" y1="335.67363393153715" x2="400.31278502988675" y2="335.77174789166446"/><line stroke-width="1.7320508075688772" marker-end="url(#arrowhead)" x1="291.69630175135495" y1="245.12734952943674" x2="303.1149222391329" y2="360.28507403250444"/><line stroke-width="1" marker-end="url(#arrowhead)" x1="291.69630175135495" y1="245.12734952943674" x2="460.15912471308786" y2="368.6905700551848"/><line stroke-width="1.4142135623730951" marker-end="url(#arrowhead)" x1="195.1303647001588" y1="486.6494761964485" x2="303.1149222391329" y2="360.28507403250444"/><line stroke-width="1" marker-end="url(#arrowhead)" x1="534.3494815780234" y1="160.23643210330786" x2="438.37605750561784" y2="-19.45435515024445"/><line stroke-width="1.4142135623730951" marker-end="url(#arrowhead)" x1="491.453726823394" y1="372.9958737365432" x2="534.3494815780234" y2="160.23643210330786"/><line stroke-width="1" marker-end="url(#arrowhead)" x1="491.453726823394" y1="372.9958737365432" x2="458.056074583146" y2="323.35145763016243"/><line stroke-width="1" marker-end="url(#arrowhead)" x1="491.453726823394" y1="372.9958737365432" x2="400.31278502988675" y2="335.77174789166446"/><line stroke-width="1" marker-end="url(#arrowhead)" x1="491.453726823394" y1="372.9958737365432" x2="460.15912471308786" y2="368.6905700551848"/><line stroke-width="1.7320508075688772" marker-end="url(#arrowhead)" x1="406.6534201351858" y1="215.01706595711954" x2="447.5600205782482" y2="218.03122531401905"/><line stroke-width="1.4142135623730951" marker-end="url(#arrowhead)" x1="406.6534201351858" y1="215.01706595711954" x2="460.15912471308786" y2="368.6905700551848"/><line stroke-width="1" marker-end="url(#arrowhead)" x1="564.1567872074131" y1="156.8177374481725" x2="406.6534201351858" y2="215.01706595711954"/><line stroke-width="1" marker-end="url(#arrowhead)" x1="564.1567872074131" y1="156.8177374481725" x2="492.1993874587541" y2="254.75532424876252"/><line stroke-width="3" marker-end="url(#arrowhead)" x1="376.04530472616676" y1="265.8421286602631" x2="406.6534201351858" y2="215.01706595711954"/><line stroke-width="1.4142135623730951" marker-end="url(#arrowhead)" x1="376.04530472616676" y1="265.8421286602631" x2="447.5600205782482" y2="218.03122531401905"/><line stroke-width="1.4142135623730951" marker-end="url(#arrowhead)" x1="376.04530472616676" y1="265.8421286602631" x2="460.15912471308786" y2="368.6905700551848"/><line stroke-width="1" marker-end="url(#arrowhead)" x1="396.79081690741185" y1="85.56574767705723" x2="376.04530472616676" y2="265.8421286602631"/><line stroke-width="1" marker-end="url(#arrowhead)" x1="396.79081690741185" y1="85.56574767705723" x2="481.16686224531577" y2="167.04536216148887"/><line stroke-width="1" marker-end="url(#arrowhead)" x1="197.26544987228135" y1="390.8626041085906" x2="376.04530472616676" y2="265.8421286602631"/><line stroke-width="1.4142135623730951" marker-end="url(#arrowhead)" x1="410.66961581528034" y1="165.9693017900421" x2="376.04530472616676" y2="265.8421286602631"/><line stroke-width="1" marker-end="url(#arrowhead)" x1="410.66961581528034" y1="165.9693017900421" x2="406.6534201351858" y2="215.01706595711954"/><line stroke-width="1" marker-end="url(#arrowhead)" x1="410.66961581528034" y1="165.9693017900421" x2="447.5600205782482" y2="218.03122531401905"/><line stroke-width="2.449489742783178" marker-end="url(#arrowhead)" x1="484.9751281769191" y1="310.0988693746031" x2="376.04530472616676" y2="265.8421286602631"/><line stroke-width="3.4641016151377544" marker-end="url(#arrowhead)" x1="484.9751281769191" y1="310.0988693746031" x2="406.6534201351858" y2="215.01706595711954"/><line stroke-width="1" marker-end="url(#arrowhead)" x1="484.9751281769191" y1="310.0988693746031" x2="481.16686224531577" y2="167.04536216148887"/><line stroke-width="1" marker-end="url(#arrowhead)" x1="484.9751281769191" y1="310.0988693746031" x2="410.66961581528034" y2="165.9693017900421"/><line stroke-width="4.58257569495584" marker-end="url(#arrowhead)" x1="484.9751281769191" y1="310.0988693746031" x2="447.5600205782482" y2="218.03122531401905"/><line stroke-width="4.358898943540674" marker-end="url(#arrowhead)" x1="484.9751281769191" y1="310.0988693746031" x2="460.15912471308786" y2="368.6905700551848"/><line stroke-width="1" marker-end="url(#arrowhead)" x1="484.9751281769191" y1="310.0988693746031" x2="429.3320984502049" y2="241.8639455101253"/><line stroke-width="1.4142135623730951" marker-end="url(#arrowhead)" x1="484.9751281769191" y1="310.0988693746031" x2="458.056074583146" y2="323.35145763016243"/><line stroke-width="2.23606797749979" marker-end="url(#arrowhead)" x1="484.9751281769191" y1="310.0988693746031" x2="428.06938260301706" y2="324.37582678044964"/><line stroke-width="2" marker-end="url(#arrowhead)" x1="484.9751281769191" y1="310.0988693746031" x2="491.453726823394" y2="372.9958737365432"/><line stroke-width="1" marker-end="url(#arrowhead)" x1="328.82392180401416" y1="289.6884280286368" x2="406.6534201351858" y2="215.01706595711954"/><line stroke-width="1" marker-end="url(#arrowhead)" x1="328.82392180401416" y1="289.6884280286368" x2="484.9751281769191" y2="310.0988693746031"/><line stroke-width="1" marker-end="url(#arrowhead)" x1="539.0159196803245" y1="340.2647282870702" x2="484.9751281769191" y2="310.0988693746031"/><line stroke-width="1" marker-end="url(#arrowhead)" x1="539.0159196803245" y1="340.2647282870702" x2="428.06938260301706" y2="324.37582678044964"/><line stroke-width="1" marker-end="url(#arrowhead)" x1="539.0159196803245" y1="340.2647282870702" x2="491.453726823394" y2="372.9958737365432"/><line stroke-width="2.6457513110645907" marker-end="url(#arrowhead)" x1="512.6831429438239" y1="394.1959204830702" x2="484.9751281769191" y2="310.0988693746031"/><line stroke-width="2.6457513110645907" marker-end="url(#arrowhead)" x1="512.6831429438239" y1="394.1959204830702" x2="491.453726823394" y2="372.9958737365432"/><line stroke-width="2.449489742783178" marker-end="url(#arrowhead)" x1="512.6831429438239" y1="394.1959204830702" x2="400.31278502988675" y2="335.77174789166446"/><line stroke-width="1" marker-end="url(#arrowhead)" x1="512.6831429438239" y1="394.1959204830702" x2="539.0159196803245" y2="340.2647282870702"/><line stroke-width="2" marker-end="url(#arrowhead)" x1="512.6831429438239" y1="394.1959204830702" x2="460.15912471308786" y2="368.6905700551848"/><line stroke-width="3.872983346207417" marker-end="url(#arrowhead)" x1="483.76880038032533" y1="402.22110927134855" x2="512.6831429438239" y2="394.1959204830702"/><line stroke-width="2.23606797749979" marker-end="url(#arrowhead)" x1="483.76880038032533" y1="402.22110927134855" x2="484.9751281769191" y2="310.0988693746031"/><line stroke-width="2.449489742783178" marker-end="url(#arrowhead)" x1="483.76880038032533" y1="402.22110927134855" x2="491.453726823394" y2="372.9958737365432"/><line stroke-width="1.4142135623730951" marker-end="url(#arrowhead)" x1="483.76880038032533" y1="402.22110927134855" x2="539.0159196803245" y2="340.2647282870702"/><line stroke-width="1" marker-end="url(#arrowhead)" x1="541.2233501033946" y1="384.9351623201293" x2="491.453726823394" y2="372.9958737365432"/><line stroke-width="2" marker-end="url(#arrowhead)" x1="541.2233501033946" y1="384.9351623201293" x2="512.6831429438239" y2="394.1959204830702"/><line stroke-width="1.4142135623730951" marker-end="url(#arrowhead)" x1="541.2233501033946" y1="384.9351623201293" x2="483.76880038032533" y2="402.22110927134855"/><line stroke-width="1.4142135623730951" marker-end="url(#arrowhead)" x1="479.8091045273404" y1="439.27482984300883" x2="491.453726823394" y2="372.9958737365432"/><line stroke-width="2.449489742783178" marker-end="url(#arrowhead)" x1="479.8091045273404" y1="439.27482984300883" x2="512.6831429438239" y2="394.1959204830702"/><line stroke-width="1.4142135623730951" marker-end="url(#arrowhead)" x1="479.8091045273404" y1="439.27482984300883" x2="541.2233501033946" y2="384.9351623201293"/><line stroke-width="2.23606797749979" marker-end="url(#arrowhead)" x1="479.8091045273404" y1="439.27482984300883" x2="483.76880038032533" y2="402.22110927134855"/><line stroke-width="1" marker-end="url(#arrowhead)" x1="479.8091045273404" y1="439.27482984300883" x2="539.0159196803245" y2="340.2647282870702"/><line stroke-width="1" marker-end="url(#arrowhead)" x1="479.8091045273404" y1="439.27482984300883" x2="484.9751281769191" y2="310.0988693746031"/><line stroke-width="3" marker-end="url(#arrowhead)" x1="479.28679305487253" y1="345.5714049908052" x2="484.9751281769191" y2="310.0988693746031"/><line stroke-width="4.123105625617661" marker-end="url(#arrowhead)" x1="479.28679305487253" y1="345.5714049908052" x2="512.6831429438239" y2="394.1959204830702"/><line stroke-width="3.605551275463989" marker-end="url(#arrowhead)" x1="479.28679305487253" y1="345.5714049908052" x2="483.76880038032533" y2="402.22110927134855"/><line stroke-width="2.6457513110645907" marker-end="url(#arrowhead)" x1="479.28679305487253" y1="345.5714049908052" x2="491.453726823394" y2="372.9958737365432"/><line stroke-width="1.4142135623730951" marker-end="url(#arrowhead)" x1="479.28679305487253" y1="345.5714049908052" x2="539.0159196803245" y2="340.2647282870702"/><line stroke-width="1" marker-end="url(#arrowhead)" x1="479.28679305487253" y1="345.5714049908052" x2="428.06938260301706" y2="324.37582678044964"/><line stroke-width="2.449489742783178" marker-end="url(#arrowhead)" x1="479.28679305487253" y1="345.5714049908052" x2="479.8091045273404" y2="439.27482984300883"/><line stroke-width="1.7320508075688772" marker-end="url(#arrowhead)" x1="479.28679305487253" y1="345.5714049908052" x2="541.2233501033946" y2="384.9351623201293"/><line stroke-width="2.23606797749979" marker-end="url(#arrowhead)" x1="527.4670540146811" y1="443.33102329302517" x2="483.76880038032533" y2="402.22110927134855"/><line stroke-width="2.23606797749979" marker-end="url(#arrowhead)" x1="527.4670540146811" y1="443.33102329302517" x2="491.453726823394" y2="372.9958737365432"/><line stroke-width="2.449489742783178" marker-end="url(#arrowhead)" x1="527.4670540146811" y1="443.33102329302517" x2="479.28679305487253" y2="345.5714049908052"/><line stroke-width="1.4142135623730951" marker-end="url(#arrowhead)" x1="527.4670540146811" y1="443.33102329302517" x2="539.0159196803245" y2="340.2647282870702"/><line stroke-width="2" marker-end="url(#arrowhead)" x1="527.4670540146811" y1="443.33102329302517" x2="512.6831429438239" y2="394.1959204830702"/><line stroke-width="1.7320508075688772" marker-end="url(#arrowhead)" x1="527.4670540146811" y1="443.33102329302517" x2="479.8091045273404" y2="439.27482984300883"/><line stroke-width="1.4142135623730951" marker-end="url(#arrowhead)" x1="527.4670540146811" y1="443.33102329302517" x2="541.2233501033946" y2="384.9351623201293"/><line stroke-width="1" marker-end="url(#arrowhead)" x1="527.4670540146811" y1="443.33102329302517" x2="484.9751281769191" y2="310.0988693746031"/><line stroke-width="2.23606797749979" marker-end="url(#arrowhead)" x1="505.1752835285586" y1="423.2461973495827" x2="484.9751281769191" y2="310.0988693746031"/><line stroke-width="3.4641016151377544" marker-end="url(#arrowhead)" x1="505.1752835285586" y1="423.2461973495827" x2="479.28679305487253" y2="345.5714049908052"/><line stroke-width="2.23606797749979" marker-end="url(#arrowhead)" x1="505.1752835285586" y1="423.2461973495827" x2="491.453726823394" y2="372.9958737365432"/><line stroke-width="2" marker-end="url(#arrowhead)" x1="505.1752835285586" y1="423.2461973495827" x2="527.4670540146811" y2="443.33102329302517"/><line stroke-width="3.1622776601683795" marker-end="url(#arrowhead)" x1="505.1752835285586" y1="423.2461973495827" x2="512.6831429438239" y2="394.1959204830702"/><line stroke-width="2.449489742783178" marker-end="url(#arrowhead)" x1="505.1752835285586" y1="423.2461973495827" x2="479.8091045273404" y2="439.27482984300883"/><line stroke-width="1.4142135623730951" marker-end="url(#arrowhead)" x1="505.1752835285586" y1="423.2461973495827" x2="541.2233501033946" y2="384.9351623201293"/><line stroke-width="3" marker-end="url(#arrowhead)" x1="505.1752835285586" y1="423.2461973495827" x2="483.76880038032533" y2="402.22110927134855"/><line stroke-width="1" marker-end="url(#arrowhead)" x1="505.1752835285586" y1="423.2461973495827" x2="539.0159196803245" y2="340.2647282870702"/><line stroke-width="1" marker-end="url(#arrowhead)" x1="505.1752835285586" y1="423.2461973495827" x2="460.15912471308786" y2="368.6905700551848"/><line stroke-width="2.23606797749979" marker-end="url(#arrowhead)" x1="560.0978559631508" y1="361.6115093321539" x2="527.4670540146811" y2="443.33102329302517"/><line stroke-width="2.6457513110645907" marker-end="url(#arrowhead)" x1="560.0978559631508" y1="361.6115093321539" x2="505.1752835285586" y2="423.2461973495827"/><line stroke-width="1.7320508075688772" marker-end="url(#arrowhead)" x1="560.0978559631508" y1="361.6115093321539" x2="491.453726823394" y2="372.9958737365432"/><line stroke-width="2.23606797749979" marker-end="url(#arrowhead)" x1="560.0978559631508" y1="361.6115093321539" x2="479.28679305487253" y2="345.5714049908052"/><line stroke-width="2.23606797749979" marker-end="url(#arrowhead)" x1="560.0978559631508" y1="361.6115093321539" x2="512.6831429438239" y2="394.1959204830702"/><line stroke-width="2.23606797749979" marker-end="url(#arrowhead)" x1="560.0978559631508" y1="361.6115093321539" x2="479.8091045273404" y2="439.27482984300883"/><line stroke-width="1.4142135623730951" marker-end="url(#arrowhead)" x1="560.0978559631508" y1="361.6115093321539" x2="541.2233501033946" y2="384.9351623201293"/><line stroke-width="2.23606797749979" marker-end="url(#arrowhead)" x1="560.0978559631508" y1="361.6115093321539" x2="483.76880038032533" y2="402.22110927134855"/><line stroke-width="1" marker-end="url(#arrowhead)" x1="560.0978559631508" y1="361.6115093321539" x2="539.0159196803245" y2="340.2647282870702"/><line stroke-width="1.4142135623730951" marker-end="url(#arrowhead)" x1="560.0978559631508" y1="361.6115093321539" x2="484.9751281769191" y2="310.0988693746031"/><line stroke-width="1.7320508075688772" marker-end="url(#arrowhead)" x1="502.1000142542065" y1="459.35714196340507" x2="505.1752835285586" y2="423.2461973495827"/><line stroke-width="1.7320508075688772" marker-end="url(#arrowhead)" x1="502.1000142542065" y1="459.35714196340507" x2="512.6831429438239" y2="394.1959204830702"/><line stroke-width="1" marker-end="url(#arrowhead)" x1="502.1000142542065" y1="459.35714196340507" x2="483.76880038032533" y2="402.22110927134855"/><line stroke-width="1.4142135623730951" marker-end="url(#arrowhead)" x1="502.1000142542065" y1="459.35714196340507" x2="479.28679305487253" y2="345.5714049908052"/><line stroke-width="1.4142135623730951" marker-end="url(#arrowhead)" x1="502.1000142542065" y1="459.35714196340507" x2="560.0978559631508" y2="361.6115093321539"/><line stroke-width="1" marker-end="url(#arrowhead)" x1="502.1000142542065" y1="459.35714196340507" x2="491.453726823394" y2="372.9958737365432"/><line stroke-width="1" marker-end="url(#arrowhead)" x1="502.1000142542065" y1="459.35714196340507" x2="527.4670540146811" y2="443.33102329302517"/><line stroke-width="1" marker-end="url(#arrowhead)" x1="502.1000142542065" y1="459.35714196340507" x2="479.8091045273404" y2="439.27482984300883"/><line stroke-width="1" marker-end="url(#arrowhead)" x1="502.1000142542065" y1="459.35714196340507" x2="541.2233501033946" y2="384.9351623201293"/><line stroke-width="1.7320508075688772" marker-end="url(#arrowhead)" x1="448.7121263753023" y1="123.4735466969772" x2="539.0159196803245" y2="340.2647282870702"/><line stroke-width="2.23606797749979" marker-end="url(#arrowhead)" x1="509.25446739982766" y1="344.0748224423069" x2="458.056074583146" y2="323.35145763016243"/><line stroke-width="1" marker-end="url(#arrowhead)" x1="509.25446739982766" y1="344.0748224423069" x2="460.15912471308786" y2="368.6905700551848"/><line stroke-width="1" marker-end="url(#arrowhead)" x1="509.25446739982766" y1="344.0748224423069" x2="492.1993874587541" y2="254.75532424876252"/><line stroke-width="1" marker-end="url(#arrowhead)" x1="509.25446739982766" y1="344.0748224423069" x2="400.31278502988675" y2="335.77174789166446"/><line stroke-width="1" marker-end="url(#arrowhead)" x1="509.25446739982766" y1="344.0748224423069" x2="491.453726823394" y2="372.9958737365432"/><line stroke-width="1" marker-end="url(#arrowhead)" x1="509.25446739982766" y1="344.0748224423069" x2="428.06938260301706" y2="324.37582678044964"/><line stroke-width="2.449489742783178" marker-end="url(#arrowhead)" x1="434.1361217229954" y1="353.75962540467896" x2="458.056074583146" y2="323.35145763016243"/><line stroke-width="2.449489742783178" marker-end="url(#arrowhead)" x1="434.1361217229954" y1="353.75962540467896" x2="509.25446739982766" y2="344.0748224423069"/><line stroke-width="1" marker-end="url(#arrowhead)" x1="434.1361217229954" y1="353.75962540467896" x2="460.15912471308786" y2="368.6905700551848"/><line stroke-width="1" marker-end="url(#arrowhead)" x1="434.1361217229954" y1="353.75962540467896" x2="492.1993874587541" y2="254.75532424876252"/><line stroke-width="1.4142135623730951" marker-end="url(#arrowhead)" x1="434.1361217229954" y1="353.75962540467896" x2="400.31278502988675" y2="335.77174789166446"/><line stroke-width="1" marker-end="url(#arrowhead)" x1="434.1361217229954" y1="353.75962540467896" x2="491.453726823394" y2="372.9958737365432"/><line stroke-width="1" marker-end="url(#arrowhead)" x1="434.1361217229954" y1="353.75962540467896" x2="428.06938260301706" y2="324.37582678044964"/><line stroke-width="2" marker-end="url(#arrowhead)" x1="421.66626273166224" y1="275.9918257964603" x2="458.056074583146" y2="323.35145763016243"/><line stroke-width="2" marker-end="url(#arrowhead)" x1="421.66626273166224" y1="275.9918257964603" x2="434.1361217229954" y2="353.75962540467896"/><line stroke-width="2" marker-end="url(#arrowhead)" x1="421.66626273166224" y1="275.9918257964603" x2="509.25446739982766" y2="344.0748224423069"/><line stroke-width="1" marker-end="url(#arrowhead)" x1="421.66626273166224" y1="275.9918257964603" x2="460.15912471308786" y2="368.6905700551848"/><line stroke-width="1" marker-end="url(#arrowhead)" x1="421.66626273166224" y1="275.9918257964603" x2="492.1993874587541" y2="254.75532424876252"/><line stroke-width="1" marker-end="url(#arrowhead)" x1="421.66626273166224" y1="275.9918257964603" x2="400.31278502988675" y2="335.77174789166446"/><line stroke-width="1" marker-end="url(#arrowhead)" x1="421.66626273166224" y1="275.9918257964603" x2="428.06938260301706" y2="324.37582678044964"/><line stroke-width="1" marker-end="url(#arrowhead)" x1="421.66626273166224" y1="275.9918257964603" x2="512.6831429438239" y2="394.1959204830702"/><line stroke-width="1" marker-end="url(#arrowhead)" x1="420.15721512806374" y1="391.8077731757039" x2="400.31278502988675" y2="335.77174789166446"/><line stroke-width="1.4142135623730951" marker-end="url(#arrowhead)" x1="420.15721512806374" y1="391.8077731757039" x2="434.1361217229954" y2="353.75962540467896"/><line stroke-width="1.4142135623730951" marker-end="url(#arrowhead)" x1="420.15721512806374" y1="391.8077731757039" x2="509.25446739982766" y2="344.0748224423069"/><line stroke-width="1.4142135623730951" marker-end="url(#arrowhead)" x1="420.15721512806374" y1="391.8077731757039" x2="421.66626273166224" y2="275.9918257964603"/><line stroke-width="1" marker-end="url(#arrowhead)" x1="420.15721512806374" y1="391.8077731757039" x2="460.15912471308786" y2="368.6905700551848"/><line stroke-width="1" marker-end="url(#arrowhead)" x1="420.15721512806374" y1="391.8077731757039" x2="491.453726823394" y2="372.9958737365432"/><line stroke-width="1" marker-end="url(#arrowhead)" x1="420.15721512806374" y1="391.8077731757039" x2="428.06938260301706" y2="324.37582678044964"/><line stroke-width="1" marker-end="url(#arrowhead)" x1="420.15721512806374" y1="391.8077731757039" x2="458.056074583146" y2="323.35145763016243"/><line stroke-width="1.4142135623730951" marker-end="url(#arrowhead)" x1="346.0518549596126" y1="265.12279890008006" x2="447.5600205782482" y2="218.03122531401905"/><line stroke-width="1" marker-end="url(#arrowhead)" x1="346.0518549596126" y1="265.12279890008006" x2="400.31278502988675" y2="335.77174789166446"/><line stroke-width="1" marker-end="url(#arrowhead)" x1="346.0518549596126" y1="265.12279890008006" x2="460.15912471308786" y2="368.6905700551848"/><line stroke-width="1.4142135623730951" marker-end="url(#arrowhead)" x1="627.1130408491499" y1="506.5542514994355" x2="491.453726823394" y2="372.9958737365432"/><line stroke-width="1.4142135623730951" marker-end="url(#arrowhead)" x1="583.0955561545833" y1="540.1943669584367" x2="491.453726823394" y2="372.9958737365432"/><line stroke-width="1.7320508075688772" marker-end="url(#arrowhead)" x1="583.0955561545833" y1="540.1943669584367" x2="627.1130408491499" y2="506.5542514994355"/><line stroke-width="1.7320508075688772" marker-end="url(#arrowhead)" x1="407.5616704439258" y1="302.47405472000804" x2="434.1361217229954" y2="353.75962540467896"/><line stroke-width="1.7320508075688772" marker-end="url(#arrowhead)" x1="407.5616704439258" y1="302.47405472000804" x2="509.25446739982766" y2="344.0748224423069"/><line stroke-width="1.7320508075688772" marker-end="url(#arrowhead)" x1="407.5616704439258" y1="302.47405472000804" x2="458.056074583146" y2="323.35145763016243"/><line stroke-width="1" marker-end="url(#arrowhead)" x1="407.5616704439258" y1="302.47405472000804" x2="491.453726823394" y2="372.9958737365432"/><line stroke-width="1" marker-end="url(#arrowhead)" x1="407.5616704439258" y1="302.47405472000804" x2="428.06938260301706" y2="324.37582678044964"/><line stroke-width="1" marker-end="url(#arrowhead)" x1="407.5616704439258" y1="302.47405472000804" x2="421.66626273166224" y2="275.9918257964603"/><line stroke-width="1" marker-end="url(#arrowhead)" x1="407.5616704439258" y1="302.47405472000804" x2="420.15721512806374" y2="391.8077731757039"/><line stroke-width="1" marker-end="url(#arrowhead)" x1="556.3828291589165" y1="435.29753079757637" x2="505.1752835285586" y2="423.2461973495827"/><line stroke-width="1" marker-end="url(#arrowhead)" x1="556.3828291589165" y1="435.29753079757637" x2="560.0978559631508" y2="361.6115093321539"/><line stroke-width="1" marker-end="url(#arrowhead)" x1="556.3828291589165" y1="435.29753079757637" x2="502.1000142542065" y2="459.35714196340507"/><line stroke-width="1" marker-end="url(#arrowhead)" x1="556.3828291589165" y1="435.29753079757637" x2="527.4670540146811" y2="443.33102329302517"/><line stroke-width="1" marker-end="url(#arrowhead)" x1="556.3828291589165" y1="435.29753079757637" x2="479.28679305487253" y2="345.5714049908052"/><line stroke-width="1" marker-end="url(#arrowhead)" x1="556.3828291589165" y1="435.29753079757637" x2="491.453726823394" y2="372.9958737365432"/><line stroke-width="1" marker-end="url(#arrowhead)" x1="556.3828291589165" y1="435.29753079757637" x2="512.6831429438239" y2="394.1959204830702"/></g><g stroke="#fff" stroke-width="1"><circle r="9" fill="#023047" cx="609.8900323207102" cy="150.5310817596985"><title> undefined : Item Number Myriel</title></circle><circle r="9" fill="#023047" cx="704.3848384783554" cy="49.39966222714894"><title> undefined : Item Number Napoleon</title></circle><circle r="9" fill="#023047" cx="629.557308964148" cy="253.19113897272848"><title> undefined : Item Number Mlle.Baptistine</title></circle><circle r="9" fill="#023047" cx="603.7663906192898" cy="231.00466697189526"><title> undefined : Item Number Mme.Magloire</title></circle><circle r="9" fill="#023047" cx="651.8071021506628" cy="6.3153327572955575"><title> undefined : Item Number CountessdeLo</title></circle><circle r="9" fill="#023047" cx="626.4315285682011" cy="54.99590592648511"><title> undefined : Item Number Geborand</title></circle><circle r="9" fill="#023047" cx="533.2219279244512" cy="190.21875503295664"><title> undefined : Item Number Champtercier</title></circle><circle r="9" fill="#023047" cx="556.0879566238108" cy="-0.5836130275356288"><title> undefined : Item Number Cravatte</title></circle><circle r="9" fill="#023047" cx="612.5413190106619" cy="180.4168678627571"><title> undefined : Item Number Count</title></circle><circle r="9" fill="#023047" cx="589.5019201202168" cy="-18.23697176010279"><title> undefined : Item Number OldMan</title></circle><circle r="11" fill="#fb8500" cx="458.94673258212015" cy="246.6866535207157"><title> undefined : Item Number Labarre</title></circle><circle r="11" fill="#fb8500" cx="460.15912471308786" cy="368.6905700551848"><title> undefined : Item Number Valjean</title></circle><circle r="13" fill="#e85d04" cx="316.16625264577874" cy="262.4846415116031"><title> undefined : Item Number Marguerite</title></circle><circle r="11" fill="#fb8500" cx="257.1667539206969" cy="341.9500944387227"><title> undefined : Item Number Mme.deR</title></circle><circle r="11" fill="#fb8500" cx="301.86543821186234" cy="448.40991332912944"><title> undefined : Item Number Isabeau</title></circle><circle r="11" fill="#fb8500" cx="479.3561623551663" cy="222.914652959048"><title> undefined : Item Number Gervais</title></circle><circle r="13" fill="#e85d04" cx="429.3320984502049" cy="241.8639455101253"><title> undefined : Item Number Tholomyes</title></circle><circle r="13" fill="#e85d04" cx="379.1206375943961" cy="312.03058450662917"><title> undefined : Item Number Listolier</title></circle><circle r="13" fill="#e85d04" cx="399.88792251306796" cy="247.62865316969132"><title> undefined : Item Number Fameuil</title></circle><circle r="13" fill="#e85d04" cx="514.975864577612" cy="309.56532249331616"><title> undefined : Item Number Blacheville</title></circle><circle r="13" fill="#e85d04" cx="463.1098611680288" cy="276.3995844967648"><title> undefined : Item Number Favourite</title></circle><circle r="13" fill="#e85d04" cx="499.51414175977067" cy="283.85248854556176"><title> undefined : Item Number Dahlia</title></circle><circle r="13" fill="#e85d04" cx="406.3793206840199" cy="365.15506493518603"><title> undefined : Item Number Zephine</title></circle><circle r="13" fill="#e85d04" cx="442.1748760038945" cy="297.892674913201"><title> undefined : Item Number Fantine</title></circle><circle r="15" fill="#31572c" cx="492.1993874587541" cy="254.75532424876252"><title> undefined : Item Number Mme.Thenardier</title></circle><circle r="15" fill="#31572c" cx="458.056074583146" cy="323.35145763016243"><title> undefined : Item Number Thenardier</title></circle><circle r="17" fill="#87CEEB" cx="447.5600205782482" cy="218.03122531401905"><title> undefined : Item Number Cosette</title></circle><circle r="15" fill="#31572c" cx="400.31278502988675" cy="335.77174789166446"><title> undefined : Item Number Javert</title></circle><circle r="7" fill="#b7916f" cx="303.1149222391329" cy="360.28507403250444"><title> undefined : Item Number Fauchelevent</title></circle><circle r="11" fill="#fb8500" cx="534.9723092711132" cy="414.280129284055"><title> undefined : Item Number Bamatabois</title></circle><circle r="13" fill="#e85d04" cx="300.61536259588826" cy="161.1884156974443"><title> undefined : Item Number Perpetue</title></circle><circle r="11" fill="#fb8500" cx="366.62398429929357" cy="229.776904786855"><title> undefined : Item Number Simplice</title></circle><circle r="11" fill="#fb8500" cx="406.49708103505554" cy="528.6118284635527"><title> undefined : Item Number Scaufflaire</title></circle><circle r="11" fill="#fb8500" cx="336.058862339755" cy="411.9269599277584"><title> undefined : Item Number Woman1</title></circle><circle r="11" fill="#fb8500" cx="571.7592895885086" cy="467.53536128823583"><title> undefined : Item Number Judge</title></circle><circle r="11" fill="#fb8500" cx="511.3515491065216" cy="491.36610055663954"><title> undefined : Item Number Champmathieu</title></circle><circle r="11" fill="#fb8500" cx="586.3343193408984" cy="437.0549097582589"><title> undefined : Item Number Brevet</title></circle><circle r="11" fill="#fb8500" cx="540.9043410651375" cy="484.240883334199"><title> undefined : Item Number Chenildieu</title></circle><circle r="11" fill="#fb8500" cx="455.13110852009555" cy="422.21072835298935"><title> undefined : Item Number Cochepaille</title></circle><circle r="15" fill="#31572c" cx="481.16686224531577" cy="167.04536216148887"><title> undefined : Item Number Pontmercy</title></circle><circle r="19" fill="#bb3e03" cx="243.42482398620183" cy="374.5872799563769"><title> undefined : Item Number Boulatruelle</title></circle><circle r="15" fill="#31572c" cx="428.06938260301706" cy="324.37582678044964"><title> undefined : Item Number Eponine</title></circle><circle r="15" fill="#31572c" cx="585.7829233709334" cy="377.1170971853526"><title> undefined : Item Number Anzelma</title></circle><circle r="17" fill="#87CEEB" cx="351.67500960892187" cy="335.67363393153715"><title> undefined : Item Number Woman2</title></circle><circle r="7" fill="#b7916f" cx="291.69630175135495" cy="245.12734952943674"><title> undefined : Item Number MotherInnocent</title></circle><circle r="7" fill="#b7916f" cx="195.1303647001588" cy="486.6494761964485"><title> undefined : Item Number Gribier</title></circle><circle r="21" fill="#023047" cx="438.37605750561784" cy="-19.45435515024445"><title> undefined : Item Number Jondrette</title></circle><circle r="21" fill="#023047" cx="534.3494815780234" cy="160.23643210330786"><title> undefined : Item Number Mme.Burgon</title></circle><circle r="23" fill="#fb8500" cx="491.453726823394" cy="372.9958737365432"><title> undefined : Item Number Gavroche</title></circle><circle r="17" fill="#87CEEB" cx="406.6534201351858" cy="215.01706595711954"><title> undefined : Item Number Gillenormand</title></circle><circle r="17" fill="#87CEEB" cx="564.1567872074131" cy="156.8177374481725"><title> undefined : Item Number Magnon</title></circle><circle r="17" fill="#87CEEB" cx="376.04530472616676" cy="265.8421286602631"><title> undefined : Item Number Mlle.Gillenormand</title></circle><circle r="17" fill="#87CEEB" cx="396.79081690741185" cy="85.56574767705723"><title> undefined : Item Number Mme.Pontmercy</title></circle><circle r="17" fill="#87CEEB" cx="197.26544987228135" cy="390.8626041085906"><title> undefined : Item Number Mlle.Vaubois</title></circle><circle r="17" fill="#87CEEB" cx="410.66961581528034" cy="165.9693017900421"><title> undefined : Item Number Lt.Gillenormand</title></circle><circle r="23" fill="#fb8500" cx="484.9751281769191" cy="310.0988693746031"><title> undefined : Item Number Marius</title></circle><circle r="17" fill="#87CEEB" cx="328.82392180401416" cy="289.6884280286368"><title> undefined : Item Number BaronessT</title></circle><circle r="23" fill="#fb8500" cx="539.0159196803245" cy="340.2647282870702"><title> undefined : Item Number Mabeuf</title></circle><circle r="23" fill="#fb8500" cx="512.6831429438239" cy="394.1959204830702"><title> undefined : Item Number Enjolras</title></circle><circle r="23" fill="#fb8500" cx="483.76880038032533" cy="402.22110927134855"><title> undefined : Item Number Combeferre</title></circle><circle r="23" fill="#fb8500" cx="541.2233501033946" cy="384.9351623201293"><title> undefined : Item Number Prouvaire</title></circle><circle r="23" fill="#fb8500" cx="479.8091045273404" cy="439.27482984300883"><title> undefined : Item Number Feuilly</title></circle><circle r="23" fill="#fb8500" cx="479.28679305487253" cy="345.5714049908052"><title> undefined : Item Number Courfeyrac</title></circle><circle r="23" fill="#fb8500" cx="527.4670540146811" cy="443.33102329302517"><title> undefined : Item Number Bahorel</title></circle><circle r="23" fill="#fb8500" cx="505.1752835285586" cy="423.2461973495827"><title> undefined : Item Number Bossuet</title></circle><circle r="23" fill="#fb8500" cx="560.0978559631508" cy="361.6115093321539"><title> undefined : Item Number Joly</title></circle><circle r="23" fill="#fb8500" cx="502.1000142542065" cy="459.35714196340507"><title> undefined : Item Number Grantaire</title></circle><circle r="25" fill="#e85d04" cx="448.7121263753023" cy="123.4735466969772"><title> undefined : Item Number MotherPlutarch</title></circle><circle r="15" fill="#31572c" cx="509.25446739982766" cy="344.0748224423069"><title> undefined : Item Number Gueulemer</title></circle><circle r="15" fill="#31572c" cx="434.1361217229954" cy="353.75962540467896"><title> undefined : Item Number Babet</title></circle><circle r="15" fill="#31572c" cx="421.66626273166224" cy="275.9918257964603"><title> undefined : Item Number Claquesous</title></circle><circle r="15" fill="#31572c" cx="420.15721512806374" cy="391.8077731757039"><title> undefined : Item Number Montparnasse</title></circle><circle r="17" fill="#87CEEB" cx="346.0518549596126" cy="265.12279890008006"><title> undefined : Item Number Toussaint</title></circle><circle r="27" fill="#31572c" cx="627.1130408491499" cy="506.5542514994355"><title> undefined : Item Number Child1</title></circle><circle r="27" fill="#31572c" cx="583.0955561545833" cy="540.1943669584367"><title> undefined : Item Number Child2</title></circle><circle r="15" fill="#31572c" cx="407.5616704439258" cy="302.47405472000804"><title> undefined : Item Number Brujon</title></circle><circle r="23" fill="#fb8500" cx="556.3828291589165" cy="435.29753079757637"><title> undefined : Item Number Mme.Hucheloup</title></circle></g><g text-anchor="middle" style="display: none;"><text fill="#fff" x="609.8900323207102" y="172.5310817596985" style="font-size: 0.6rem;"/><text fill="#fff" x="704.3848384783554" y="71.39966222714894" style="font-size: 0.6rem;"/><text fill="#fff" x="629.557308964148" y="275.1911389727285" style="font-size: 0.6rem;"/><text fill="#fff" x="603.7663906192898" y="253.00466697189526" style="font-size: 0.6rem;"/><text fill="#fff" x="651.8071021506628" y="28.315332757295558" style="font-size: 0.6rem;"/><text fill="#fff" x="626.4315285682011" y="76.99590592648511" style="font-size: 0.6rem;"/><text fill="#fff" x="533.2219279244512" y="212.21875503295664" style="font-size: 0.6rem;"/><text fill="#fff" x="556.0879566238108" y="21.41638697246437" style="font-size: 0.6rem;"/><text fill="#fff" x="612.5413190106619" y="202.4168678627571" style="font-size: 0.6rem;"/><text fill="#fff" x="589.5019201202168" y="3.76302823989721" style="font-size: 0.6rem;"/><text fill="#fff" x="458.94673258212015" y="268.6866535207157" style="font-size: 0.6rem;"/><text fill="#fff" x="460.15912471308786" y="390.6905700551848" style="font-size: 0.6rem;"/><text fill="#fff" x="316.16625264577874" y="284.4846415116031" style="font-size: 0.6rem;"/><text fill="#fff" x="257.1667539206969" y="363.9500944387227" style="font-size: 0.6rem;"/><text fill="#fff" x="301.86543821186234" y="470.40991332912944" style="font-size: 0.6rem;"/><text fill="#fff" x="479.3561623551663" y="244.914652959048" style="font-size: 0.6rem;"/><text fill="#fff" x="429.3320984502049" y="263.8639455101253" style="font-size: 0.6rem;"/><text fill="#fff" x="379.1206375943961" y="334.03058450662917" style="font-size: 0.6rem;"/><text fill="#fff" x="399.88792251306796" y="269.62865316969135" style="font-size: 0.6rem;"/><text fill="#fff" x="514.975864577612" y="331.56532249331616" style="font-size: 0.6rem;"/><text fill="#fff" x="463.1098611680288" y="298.3995844967648" style="font-size: 0.6rem;"/><text fill="#fff" x="499.51414175977067" y="305.85248854556176" style="font-size: 0.6rem;"/><text fill="#fff" x="406.3793206840199" y="387.15506493518603" style="font-size: 0.6rem;"/><text fill="#fff" x="442.1748760038945" y="319.892674913201" style="font-size: 0.6rem;"/><text fill="#fff" x="492.1993874587541" y="276.7553242487625" style="font-size: 0.6rem;"/><text fill="#fff" x="458.056074583146" y="345.35145763016243" style="font-size: 0.6rem;"/><text fill="#fff" x="447.5600205782482" y="240.03122531401905" style="font-size: 0.6rem;"/><text fill="#fff" x="400.31278502988675" y="357.77174789166446" style="font-size: 0.6rem;"/><text fill="#fff" x="303.1149222391329" y="382.28507403250444" style="font-size: 0.6rem;"/><text fill="#fff" x="534.9723092711132" y="436.280129284055" style="font-size: 0.6rem;"/><text fill="#fff" x="300.61536259588826" y="183.1884156974443" style="font-size: 0.6rem;"/><text fill="#fff" x="366.62398429929357" y="251.776904786855" style="font-size: 0.6rem;"/><text fill="#fff" x="406.49708103505554" y="550.6118284635527" style="font-size: 0.6rem;"/><text fill="#fff" x="336.058862339755" y="433.9269599277584" style="font-size: 0.6rem;"/><text fill="#fff" x="571.7592895885086" y="489.53536128823583" style="font-size: 0.6rem;"/><text fill="#fff" x="511.3515491065216" y="513.3661005566396" style="font-size: 0.6rem;"/><text fill="#fff" x="586.3343193408984" y="459.0549097582589" style="font-size: 0.6rem;"/><text fill="#fff" x="540.9043410651375" y="506.240883334199" style="font-size: 0.6rem;"/><text fill="#fff" x="455.13110852009555" y="444.21072835298935" style="font-size: 0.6rem;"/><text fill="#fff" x="481.16686224531577" y="189.04536216148887" style="font-size: 0.6rem;"/><text fill="#fff" x="243.42482398620183" y="396.5872799563769" style="font-size: 0.6rem;"/><text fill="#fff" x="428.06938260301706" y="346.37582678044964" style="font-size: 0.6rem;"/><text fill="#fff" x="585.7829233709334" y="399.1170971853526" style="font-size: 0.6rem;"/><text fill="#fff" x="351.67500960892187" y="357.67363393153715" style="font-size: 0.6rem;"/><text fill="#fff" x="291.69630175135495" y="267.12734952943674" style="font-size: 0.6rem;"/><text fill="#fff" x="195.1303647001588" y="508.6494761964485" style="font-size: 0.6rem;"/><text fill="#fff" x="438.37605750561784" y="2.5456448497555506" style="font-size: 0.6rem;"/><text fill="#fff" x="534.3494815780234" y="182.23643210330786" style="font-size: 0.6rem;"/><text fill="#fff" x="491.453726823394" y="394.9958737365432" style="font-size: 0.6rem;"/><text fill="#fff" x="406.6534201351858" y="237.01706595711954" style="font-size: 0.6rem;"/><text fill="#fff" x="564.1567872074131" y="178.8177374481725" style="font-size: 0.6rem;"/><text fill="#fff" x="376.04530472616676" y="287.8421286602631" style="font-size: 0.6rem;"/><text fill="#fff" x="396.79081690741185" y="107.56574767705723" style="font-size: 0.6rem;"/><text fill="#fff" x="197.26544987228135" y="412.8626041085906" style="font-size: 0.6rem;"/><text fill="#fff" x="410.66961581528034" y="187.9693017900421" style="font-size: 0.6rem;"/><text fill="#fff" x="484.9751281769191" y="332.0988693746031" style="font-size: 0.6rem;"/><text fill="#fff" x="328.82392180401416" y="311.6884280286368" style="font-size: 0.6rem;"/><text fill="#fff" x="539.0159196803245" y="362.2647282870702" style="font-size: 0.6rem;"/><text fill="#fff" x="512.6831429438239" y="416.1959204830702" style="font-size: 0.6rem;"/><text fill="#fff" x="483.76880038032533" y="424.22110927134855" style="font-size: 0.6rem;"/><text fill="#fff" x="541.2233501033946" y="406.9351623201293" style="font-size: 0.6rem;"/><text fill="#fff" x="479.8091045273404" y="461.27482984300883" style="font-size: 0.6rem;"/><text fill="#fff" x="479.28679305487253" y="367.5714049908052" style="font-size: 0.6rem;"/><text fill="#fff" x="527.4670540146811" y="465.33102329302517" style="font-size: 0.6rem;"/><text fill="#fff" x="505.1752835285586" y="445.2461973495827" style="font-size: 0.6rem;"/><text fill="#fff" x="560.0978559631508" y="383.6115093321539" style="font-size: 0.6rem;"/><text fill="#fff" x="502.1000142542065" y="481.35714196340507" style="font-size: 0.6rem;"/><text fill="#fff" x="448.7121263753023" y="145.4735466969772" style="font-size: 0.6rem;"/><text fill="#fff" x="509.25446739982766" y="366.0748224423069" style="font-size: 0.6rem;"/><text fill="#fff" x="434.1361217229954" y="375.75962540467896" style="font-size: 0.6rem;"/><text fill="#fff" x="421.66626273166224" y="297.9918257964603" style="font-size: 0.6rem;"/><text fill="#fff" x="420.15721512806374" y="413.8077731757039" style="font-size: 0.6rem;"/><text fill="#fff" x="346.0518549596126" y="287.12279890008006" style="font-size: 0.6rem;"/><text fill="#fff" x="627.1130408491499" y="528.5542514994355" style="font-size: 0.6rem;"/><text fill="#fff" x="583.0955561545833" y="562.1943669584367" style="font-size: 0.6rem;"/><text fill="#fff" x="407.5616704439258" y="324.47405472000804" style="font-size: 0.6rem;"/><text fill="#fff" x="556.3828291589165" y="457.29753079757637" style="font-size: 0.6rem;"/></g></svg>